HIERARCHY
ROOT Hip
{
	OFFSET -0.185302 0.232817 0.209342
	CHANNELS 6 Xposition Yposition Zposition Xrotation Yrotation Zrotation
	JOINT LowerSpine
	{
		OFFSET 0.030879 0.124146 0.273504
		CHANNELS 6 Xposition Yposition Zposition Xrotation Yrotation Zrotation
		JOINT MiddleSpine
		{
			OFFSET -0.002226 -0.034937 0.234436
			CHANNELS 3 Xrotation Yrotation Zrotation
			JOINT Chest
			{
				OFFSET 0.011735 0.027408 0.297308
				CHANNELS 3 Xrotation Yrotation Zrotation
				JOINT Neck
				{
					OFFSET 0.002471 -0.055115 0.658027
					CHANNELS 6 Xposition Yposition Zposition Xrotation Yrotation Zrotation
					JOINT Head
					{
						OFFSET -0.020279 -0.136772 0.360792
						CHANNELS 3 Xrotation Yrotation Zrotation
						End Site
						{
							OFFSET -0.000319 -0.007005 0.053106
						}
					}
				}
				JOINT LClavicle
				{
					OFFSET 0.019498 -0.268241 0.613039
					CHANNELS 6 Xposition Yposition Zposition Xrotation Yrotation Zrotation
					JOINT LShoulder
					{
						OFFSET 0.372955 0.065134 0.098526
						CHANNELS 3 Xrotation Yrotation Zrotation
						JOINT LForearm
						{
							OFFSET 0.811904 -0.157243 -0.019025
							CHANNELS 3 Xrotation Yrotation Zrotation
							JOINT LHand
							{
								OFFSET 0.676930 -0.133427 -0.011631
								CHANNELS 3 Xrotation Yrotation Zrotation
								JOINT LFinger1
								{
									OFFSET 0.247187 -0.127978 0.010424
									CHANNELS 6 Xposition Yposition Zposition Xrotation Yrotation Zrotation
									JOINT LFinger11
									{
										OFFSET 0.094491 -0.034597 -0.028058
										CHANNELS 3 Xrotation Yrotation Zrotation
										JOINT LFinger12
										{
											OFFSET 0.064506 -0.023622 -0.019159
											CHANNELS 3 Xrotation Yrotation Zrotation
											End Site
											{
												OFFSET 0.048051 -0.016567 -0.016913
											}
										}
									}
								}
								JOINT LFinger2
								{
									OFFSET 0.264655 -0.063040 0.020704
									CHANNELS 6 Xposition Yposition Zposition Xrotation Yrotation Zrotation
									JOINT LFinger21
									{
										OFFSET 0.121336 -0.023925 -0.002100
										CHANNELS 3 Xrotation Yrotation Zrotation
										JOINT LFinger22
										{
											OFFSET 0.067260 -0.013252 -0.001144
											CHANNELS 3 Xrotation Yrotation Zrotation
											End Site
											{
												OFFSET 0.052341 -0.010313 -0.004847
											}
										}
									}
								}
								JOINT LFinger3
								{
									OFFSET 0.264210 0.006321 0.018767
									CHANNELS 6 Xposition Yposition Zposition Xrotation Yrotation Zrotation
									JOINT LFinger31
									{
										OFFSET 0.111374 -0.014896 -0.007234
										CHANNELS 3 Xrotation Yrotation Zrotation
										JOINT LFinger32
										{
											OFFSET 0.063470 -0.008478 -0.004101
											CHANNELS 3 Xrotation Yrotation Zrotation
											End Site
											{
												OFFSET 0.052538 -0.007451 -0.007325
											}
										}
									}
								}
								JOINT LFinger4
								{
									OFFSET 0.254900 0.056810 -0.012424
									CHANNELS 6 Xposition Yposition Zposition Xrotation Yrotation Zrotation
									JOINT LFinger41
									{
										OFFSET 0.071450 0.006309 -0.013827
										CHANNELS 3 Xrotation Yrotation Zrotation
										JOINT LFinger42
										{
											OFFSET 0.052397 0.004633 -0.010123
											CHANNELS 3 Xrotation Yrotation Zrotation
											End Site
											{
												OFFSET 0.051728 0.002658 -0.013657
											}
										}
									}
								}
								JOINT LFinger0
								{
									OFFSET 0.045822 -0.047626 -0.046962
									CHANNELS 6 Xposition Yposition Zposition Xrotation Yrotation Zrotation
									JOINT LFinger01
									{
										OFFSET 0.085397 -0.092742 -0.043486
										CHANNELS 3 Xrotation Yrotation Zrotation
										JOINT LFinger02
										{
											OFFSET 0.056687 -0.058653 -0.030394
											CHANNELS 3 Xrotation Yrotation Zrotation
											End Site
											{
												OFFSET 0.035836 -0.035346 -0.018326
											}
										}
									}
								}
							}
						}
					}
				}
				JOINT RClavicle
				{
					OFFSET -0.098059 -0.244374 0.615480
					CHANNELS 6 Xposition Yposition Zposition Xrotation Yrotation Zrotation
					JOINT RShoulder
					{
						OFFSET -0.313877 0.204587 0.112802
						CHANNELS 3 Xrotation Yrotation Zrotation
						JOINT RForearm
						{
							OFFSET -0.809038 0.171814 0.014622
							CHANNELS 3 Xrotation Yrotation Zrotation
							JOINT RHand
							{
								OFFSET -0.675278 0.141076 0.016438
								CHANNELS 3 Xrotation Yrotation Zrotation
								JOINT RFinger1
								{
									OFFSET -0.276891 -0.021588 0.021306
									CHANNELS 6 Xposition Yposition Zposition Xrotation Yrotation Zrotation
									JOINT RFinger11
									{
										OFFSET -0.101540 0.005198 -0.023989
										CHANNELS 3 Xrotation Yrotation Zrotation
										JOINT RFinger12
										{
											OFFSET -0.069320 0.003545 -0.016384
											CHANNELS 3 Xrotation Yrotation Zrotation
											End Site
											{
												OFFSET -0.051340 0.003610 -0.014850
											}
										}
									}
								}
								JOINT RFinger2
								{
									OFFSET -0.267242 0.044936 0.031748
									CHANNELS 6 Xposition Yposition Zposition Xrotation Yrotation Zrotation
									JOINT RFinger21
									{
										OFFSET -0.121046 0.025280 0.002931
										CHANNELS 3 Xrotation Yrotation Zrotation
										JOINT RFinger22
										{
											OFFSET -0.067092 0.014025 0.001645
											CHANNELS 3 Xrotation Yrotation Zrotation
											End Site
											{
												OFFSET -0.052369 0.010943 -0.002674
											}
										}
									}
								}
								JOINT RFinger3
								{
									OFFSET -0.239874 0.108652 0.029231
									CHANNELS 6 Xposition Yposition Zposition Xrotation Yrotation Zrotation
									JOINT RFinger31
									{
										OFFSET -0.108564 0.029752 -0.002669
										CHANNELS 3 Xrotation Yrotation Zrotation
										JOINT RFinger32
										{
											OFFSET -0.061863 0.016965 -0.001499
											CHANNELS 3 Xrotation Yrotation Zrotation
											End Site
											{
												OFFSET -0.051533 0.013675 -0.005165
											}
										}
									}
								}
								JOINT RFinger4
								{
									OFFSET -0.212872 0.151769 -0.002714
									CHANNELS 6 Xposition Yposition Zposition Xrotation Yrotation Zrotation
									JOINT RFinger41
									{
										OFFSET -0.063830 0.033771 -0.011017
										CHANNELS 3 Xrotation Yrotation Zrotation
										JOINT RFinger42
										{
											OFFSET -0.046806 0.024771 -0.008061
											CHANNELS 3 Xrotation Yrotation Zrotation
											End Site
											{
												OFFSET -0.047101 0.022720 -0.011605
											}
										}
									}
								}
								JOINT RFinger0
								{
									OFFSET -0.062593 -0.025615 -0.044709
									CHANNELS 6 Xposition Yposition Zposition Xrotation Yrotation Zrotation
									JOINT RFinger01
									{
										OFFSET -0.116451 -0.051768 -0.039302
										CHANNELS 3 Xrotation Yrotation Zrotation
										JOINT RFinger02
										{
											OFFSET -0.076225 -0.031671 -0.027633
											CHANNELS 3 Xrotation Yrotation Zrotation
											End Site
											{
												OFFSET -0.047478 -0.018433 -0.016597
											}
										}
									}
								}
							}
						}
					}
				}
			}
		}
	}
	JOINT RThigh
	{
		OFFSET -0.295545 0.073616 0.125420
		CHANNELS 6 Xposition Yposition Zposition Xrotation Yrotation Zrotation
		JOINT RShin
		{
			OFFSET -0.021761 0.127221 -1.200518
			CHANNELS 3 Xrotation Yrotation Zrotation
			JOINT RFoot
			{
				OFFSET 0.000000 0.120585 -1.179281
				CHANNELS 3 Xrotation Yrotation Zrotation
				JOINT RToe
				{
					OFFSET -0.054474 -0.252312 -0.156769
					CHANNELS 3 Xrotation Yrotation Zrotation
					End Site
					{
						OFFSET -0.010710 -0.052213 -0.005339
					}
				}
			}
		}
	}
	JOINT LThigh
	{
		OFFSET 0.305603 -0.048418 0.112950
		CHANNELS 6 Xposition Yposition Zposition Xrotation Yrotation Zrotation
		JOINT LShin
		{
			OFFSET 0.021764 0.118386 -1.201430
			CHANNELS 3 Xrotation Yrotation Zrotation
			JOINT LFoot
			{
				OFFSET -0.000000 0.120585 -1.179281
				CHANNELS 3 Xrotation Yrotation Zrotation
				JOINT LToe
				{
					OFFSET -0.054475 -0.252314 -0.156769
					CHANNELS 3 Xrotation Yrotation Zrotation
					End Site
					{
						OFFSET -0.010710 -0.052213 -0.005339
					}
				}
			}
		}
	}
}
MOTION
Frames: 4
Frame Time: 0.041667
0.166797 1.209796 1.536799 8.336984 12.846668 64.230423 0.030879 0.124146 0.273504 0.000002 0.000004 0.000005 2.441599 10.277766 -3.049965 11.417855 33.487591 -13.159856 0.002471 -0.055115 0.658027 -8.415440 9.295293 3.854475 -8.739353 43.193607 9.486618 0.019498 -0.268241 0.613039 -5.234307 -1.728837 -0.136875 -51.234793 -49.768969 -35.918189 0.014036 0.270543 -2.654717 0.003703 0.088392 -0.698006 0.247187 -0.127978 0.010425 0.000001 -0.000005 -0.000007 -0.000009 0.000006 -0.000015 0.000002 -0.000010 -0.000001 0.264656 -0.063040 0.020704 0.000002 -0.000004 0.000005 -0.000001 0.000002 -0.000007 -0.000001 -0.000000 -0.000001 0.264209 0.006321 0.018767 0.000003 -0.000007 0.000004 0.000003 0.000001 -0.000001 -0.000003 0.000006 -0.000002 0.254900 0.056810 -0.012424 0.000000 -0.000001 0.000004 -0.000004 -0.000001 -0.000001 0.000001 0.000004 -0.000004 0.045822 -0.047626 -0.046962 -0.000002 -0.000005 -0.000002 -0.000004 0.000014 -0.000012 -0.000007 0.000010 -0.000009 -0.098059 -0.244374 0.615480 5.257425 28.981090 5.044449 -50.675253 64.867666 50.071301 -0.000005 -0.000019 0.000004 -0.000001 0.000009 0.000000 -0.276891 -0.021588 0.021306 0.000003 -0.000011 0.000003 -0.000004 -0.000005 -0.000004 -0.000002 -0.000009 -0.000002 -0.267242 0.044937 0.031747 0.000005 -0.000003 0.000003 0.000000 0.000001 -0.000005 0.000002 0.000004 -0.000008 -0.239874 0.108652 0.029231 0.000001 -0.000004 -0.000002 0.000003 0.000003 0.000001 -0.000006 -0.000001 -0.000005 -0.212872 0.151769 -0.002714 0.000004 -0.000005 0.000001 -0.000001 0.000006 -0.000007 -0.000009 -0.000005 -0.000002 -0.062593 -0.025615 -0.044708 0.000011 -0.000006 -0.000001 0.000000 -0.000007 0.000006 0.000001 -0.000005 0.000002 -0.295545 0.073619 0.125453 -78.345439 63.817285 5.682720 80.684547 -12.309708 8.478670 2.426627 -0.118234 -0.668625 -0.140077 0.028434 0.002943 0.322735 -0.071195 0.176514 -83.366960 -48.744611 13.285264 78.247952 -12.175313 8.010445 -2.502073 0.799327 -0.390334 -0.079376 0.016148 0.001652 
0.166797 1.209796 1.536799 8.336984 12.846668 64.230423 0.030879 0.124146 0.273504 0.000002 0.000004 0.000005 2.441599 10.277766 -3.049965 11.417855 33.487591 -13.159856 0.002471 -0.055115 0.658027 -8.415440 9.295293 3.854475 -8.739353 43.193607 9.486618 0.019498 -0.268241 0.613039 -5.234307 -1.728837 -0.136875 -51.234793 -49.768969 -35.918189 0.014036 0.270543 -2.654717 0.003703 0.088392 -0.698006 0.247187 -0.127978 0.010425 0.000001 -0.000005 -0.000007 -0.000009 0.000006 -0.000015 0.000002 -0.000010 -0.000001 0.264656 -0.063040 0.020704 0.000002 -0.000004 0.000005 -0.000001 0.000002 -0.000007 -0.000001 -0.000000 -0.000001 0.264209 0.006321 0.018767 0.000003 -0.000007 0.000004 0.000003 0.000001 -0.000001 -0.000003 0.000006 -0.000002 0.254900 0.056810 -0.012424 0.000000 -0.000001 0.000004 -0.000004 -0.000001 -0.000001 0.000001 0.000004 -0.000004 0.045822 -0.047626 -0.046962 -0.000002 -0.000005 -0.000002 -0.000004 0.000014 -0.000012 -0.000007 0.000010 -0.000009 -0.098059 -0.244374 0.615480 5.257425 28.981090 5.044449 -50.675253 64.867666 50.071301 -0.000005 -0.000019 0.000004 -0.000001 0.000009 0.000000 -0.276891 -0.021588 0.021306 0.000003 -0.000011 0.000003 -0.000004 -0.000005 -0.000004 -0.000002 -0.000009 -0.000002 -0.267242 0.044937 0.031747 0.000005 -0.000003 0.000003 0.000000 0.000001 -0.000005 0.000002 0.000004 -0.000008 -0.239874 0.108652 0.029231 0.000001 -0.000004 -0.000002 0.000003 0.000003 0.000001 -0.000006 -0.000001 -0.000005 -0.212872 0.151769 -0.002714 0.000004 -0.000005 0.000001 -0.000001 0.000006 -0.000007 -0.000009 -0.000005 -0.000002 -0.062593 -0.025615 -0.044708 0.000011 -0.000006 -0.000001 0.000000 -0.000007 0.000006 0.000001 -0.000005 0.000002 -0.295545 0.073619 0.125453 -78.345439 63.817285 5.682720 80.684547 -12.309708 8.478670 2.426627 -0.118234 -0.668625 -0.140077 0.028434 0.002943 0.322735 -0.071195 0.176514 -83.366960 -48.744611 13.285264 78.247952 -12.175313 8.010445 -2.502073 0.799327 -0.390334 -0.079376 0.016148 0.001652 
0.164740 1.210776 1.529708 8.231673 12.586332 64.159211 0.030879 0.124146 0.273504 0.000002 0.000005 0.000006 2.433796 10.293134 -2.989629 11.351869 33.554342 -12.943191 0.002471 -0.055115 0.658028 -7.639490 8.227765 3.313826 -7.863595 42.879309 9.067856 0.019498 -0.268241 0.613039 -5.038987 -3.034293 -0.337329 -47.637458 -50.482580 -33.422404 0.005117 0.122564 -1.202549 0.003700 0.088391 -0.698010 0.247187 -0.127978 0.010425 0.000000 -0.000002 -0.000007 -0.000012 0.000005 -0.000013 0.000004 -0.000006 0.000006 0.264655 -0.063041 0.020704 0.000001 -0.000001 0.000002 -0.000003 0.000002 -0.000003 -0.000003 -0.000001 0.000001 0.264210 0.006320 0.018767 0.000003 -0.000002 0.000000 0.000001 -0.000000 -0.000003 -0.000002 0.000007 -0.000002 0.254900 0.056810 -0.012424 -0.000001 0.000001 -0.000001 -0.000001 -0.000001 0.000001 0.000000 0.000004 0.000001 0.045822 -0.047626 -0.046962 0.000001 0.000001 -0.000002 -0.000000 0.000016 -0.000017 -0.000004 0.000009 -0.000009 -0.098059 -0.244374 0.615480 5.231105 29.111369 5.473246 -46.631795 65.820341 46.414086 -0.000001 -0.000015 -0.000003 0.000001 0.000003 -0.000001 -0.276891 -0.021588 0.021305 0.000001 -0.000010 0.000002 0.000003 0.000000 -0.000003 -0.000004 -0.000013 0.000001 -0.267242 0.044936 0.031747 0.000002 -0.000002 -0.000000 -0.000000 0.000002 -0.000007 0.000001 0.000005 -0.000008 -0.239874 0.108652 0.029231 -0.000002 -0.000004 -0.000002 0.000002 0.000002 0.000005 -0.000000 0.000001 -0.000002 -0.212871 0.151769 -0.002714 0.000003 -0.000006 -0.000004 0.000002 0.000001 -0.000013 -0.000002 -0.000004 -0.000007 -0.062594 -0.025615 -0.044709 0.000008 -0.000003 -0.000003 0.000005 -0.000008 0.000007 0.000009 -0.000001 0.000003 -0.295544 0.073630 0.125555 -79.043163 63.463338 7.179581 80.965165 -12.323930 8.532943 0.799999 -0.204063 0.061172 -0.035015 0.007110 0.000729 0.312700 -0.064699 0.128721 -84.185278 -49.131231 12.423866 79.434342 -12.243212 8.237722 -1.299711 0.906043 -0.976365 -0.119058 0.024208 0.002487 
0.167188 1.203020 1.533905 7.668173 12.312962 64.060720 0.030879 0.124146 0.273504 0.000002 0.000004 0.000000 2.380191 10.440466 -3.145032 11.356696 34.014742 -13.542190 0.002471 -0.055115 0.658028 -7.919906 7.112935 2.820252 -7.760111 43.312545 9.123421 0.019498 -0.268241 0.613039 -4.806171 -4.630044 -0.576588 -46.201951 -51.073238 -30.889414 0.010623 0.219679 -2.155457 0.003700 0.088391 -0.698003 0.247186 -0.127978 0.010425 0.000001 -0.000002 -0.000012 -0.000012 0.000005 -0.000015 0.000002 -0.000007 -0.000004 0.264655 -0.063041 0.020704 0.000002 -0.000001 -0.000001 -0.000001 0.000002 -0.000001 -0.000002 0.000002 -0.000001 0.264209 0.006321 0.018767 0.000003 -0.000001 -0.000005 -0.000000 0.000002 -0.000000 0.000001 0.000008 -0.000002 0.254899 0.056810 -0.012423 -0.000001 0.000002 -0.000004 -0.000002 -0.000003 0.000004 -0.000000 0.000003 -0.000002 0.045822 -0.047626 -0.046962 -0.000003 -0.000002 -0.000007 -0.000004 0.000015 -0.000015 -0.000009 0.000012 -0.000009 -0.098059 -0.244374 0.615480 5.017047 30.008644 8.461217 -40.283274 66.015704 39.245533 -0.000038 -0.000031 -0.000004 0.000000 -0.000003 -0.000011 -0.276891 -0.021588 0.021306 0.000002 -0.000006 0.000005 -0.000000 -0.000001 -0.000003 -0.000004 -0.000009 -0.000003 -0.267242 0.044937 0.031748 0.000002 0.000003 -0.000000 0.000002 0.000007 0.000000 -0.000001 0.000007 -0.000009 -0.239873 0.108652 0.029231 -0.000000 0.000001 -0.000002 0.000002 0.000001 0.000005 0.000001 -0.000002 -0.000002 -0.212872 0.151769 -0.002714 0.000001 -0.000002 -0.000003 -0.000000 0.000006 -0.000009 -0.000006 -0.000004 -0.000000 -0.062593 -0.025614 -0.044708 0.000005 -0.000001 -0.000001 0.000001 -0.000003 0.000002 0.000002 -0.000002 0.000001 -0.295543 0.073648 0.125724 -76.059429 63.063239 4.871361 80.294946 -12.289526 8.403431 0.170736 -0.148288 0.179190 0.000007 -0.000001 0.000001 0.312699 -0.064694 0.128735 -83.967504 -49.548689 11.380675 79.526836 -12.248312 8.255504 -0.764509 1.413742 -1.962218 -0.079360 0.016148 0.001652 
